<mxfile host="app.diagrams.net" modified="2023-10-20T01:35:41.093Z" agent="Mozilla/5.0 (Windows NT 10.0; Win64; x64) AppleWebKit/537.36 (KHTML, like Gecko) Chrome/118.0.0.0 Safari/537.36" etag="nsYSJURNyZj1JJS-kv4z" version="21.6.8" type="device">
  <diagram name="Page-1" id="RBFI0iX49wBqgzLYOTrN">
    <mxGraphModel dx="1648" dy="2534" grid="1" gridSize="10" guides="1" tooltips="1" connect="1" arrows="1" fold="1" page="1" pageScale="1" pageWidth="850" pageHeight="1100" math="0" shadow="0">
      <root>
        <mxCell id="0" />
        <mxCell id="1" parent="0" />
        <mxCell id="7mZpvFm0Rja0avcv9IFA-11" value="YUV" style="edgeStyle=orthogonalEdgeStyle;rounded=0;orthogonalLoop=1;jettySize=auto;html=1;entryX=0;entryY=0.75;entryDx=0;entryDy=0;" edge="1" parent="1" source="7mZpvFm0Rja0avcv9IFA-2" target="7mZpvFm0Rja0avcv9IFA-7">
          <mxGeometry x="0.4987" relative="1" as="geometry">
            <Array as="points">
              <mxPoint x="840" y="445" />
              <mxPoint x="840" y="390" />
            </Array>
            <mxPoint as="offset" />
          </mxGeometry>
        </mxCell>
        <mxCell id="7mZpvFm0Rja0avcv9IFA-47" style="edgeStyle=orthogonalEdgeStyle;rounded=0;orthogonalLoop=1;jettySize=auto;html=1;entryX=0.538;entryY=0.995;entryDx=0;entryDy=0;entryPerimeter=0;" edge="1" parent="1" source="7mZpvFm0Rja0avcv9IFA-2" target="7mZpvFm0Rja0avcv9IFA-27">
          <mxGeometry relative="1" as="geometry" />
        </mxCell>
        <mxCell id="7mZpvFm0Rja0avcv9IFA-2" value="Digital matrix" style="whiteSpace=wrap;html=1;aspect=fixed;fillColor=#d5e8d4;strokeColor=#82b366;" vertex="1" parent="1">
          <mxGeometry x="460" y="380" width="130" height="130" as="geometry" />
        </mxCell>
        <mxCell id="7mZpvFm0Rja0avcv9IFA-10" value="YUV" style="edgeStyle=orthogonalEdgeStyle;rounded=0;orthogonalLoop=1;jettySize=auto;html=1;entryX=0;entryY=0.25;entryDx=0;entryDy=0;" edge="1" parent="1" source="7mZpvFm0Rja0avcv9IFA-27" target="7mZpvFm0Rja0avcv9IFA-7">
          <mxGeometry relative="1" as="geometry">
            <mxPoint x="590" y="225" as="sourcePoint" />
            <Array as="points">
              <mxPoint x="840" y="70" />
              <mxPoint x="840" y="290" />
            </Array>
          </mxGeometry>
        </mxCell>
        <mxCell id="7mZpvFm0Rja0avcv9IFA-5" value="Interface" style="rounded=0;whiteSpace=wrap;html=1;rotation=90;fillColor=#e1d5e7;strokeColor=#9673a6;" vertex="1" parent="1">
          <mxGeometry x="375" y="205" width="130" height="40" as="geometry" />
        </mxCell>
        <mxCell id="7mZpvFm0Rja0avcv9IFA-6" value="Interface" style="rounded=0;whiteSpace=wrap;html=1;rotation=90;fillColor=#d5e8d4;strokeColor=#82b366;" vertex="1" parent="1">
          <mxGeometry x="375" y="425" width="130" height="40" as="geometry" />
        </mxCell>
        <mxCell id="7mZpvFm0Rja0avcv9IFA-9" value="YUV" style="edgeStyle=orthogonalEdgeStyle;rounded=0;orthogonalLoop=1;jettySize=auto;html=1;entryX=0;entryY=0.5;entryDx=0;entryDy=0;" edge="1" parent="1" source="7mZpvFm0Rja0avcv9IFA-7" target="7mZpvFm0Rja0avcv9IFA-8">
          <mxGeometry relative="1" as="geometry" />
        </mxCell>
        <mxCell id="7mZpvFm0Rja0avcv9IFA-7" value="Mix" style="rounded=0;whiteSpace=wrap;html=1;" vertex="1" parent="1">
          <mxGeometry x="902" y="240" width="50" height="200" as="geometry" />
        </mxCell>
        <mxCell id="7mZpvFm0Rja0avcv9IFA-13" value="YUV" style="edgeStyle=orthogonalEdgeStyle;rounded=0;orthogonalLoop=1;jettySize=auto;html=1;entryX=0;entryY=0.5;entryDx=0;entryDy=0;" edge="1" parent="1" source="7mZpvFm0Rja0avcv9IFA-8" target="7mZpvFm0Rja0avcv9IFA-12">
          <mxGeometry relative="1" as="geometry" />
        </mxCell>
        <mxCell id="7mZpvFm0Rja0avcv9IFA-8" value="YUV&lt;br&gt;Levels" style="rounded=0;whiteSpace=wrap;html=1;fillColor=#d5e8d4;strokeColor=#82b366;" vertex="1" parent="1">
          <mxGeometry x="1002" y="240" width="50" height="200" as="geometry" />
        </mxCell>
        <mxCell id="7mZpvFm0Rja0avcv9IFA-16" value="RGB" style="edgeStyle=orthogonalEdgeStyle;rounded=0;orthogonalLoop=1;jettySize=auto;html=1;entryX=0;entryY=0.5;entryDx=0;entryDy=0;" edge="1" parent="1" source="7mZpvFm0Rja0avcv9IFA-12" target="7mZpvFm0Rja0avcv9IFA-14">
          <mxGeometry relative="1" as="geometry" />
        </mxCell>
        <mxCell id="7mZpvFm0Rja0avcv9IFA-71" style="edgeStyle=orthogonalEdgeStyle;rounded=0;orthogonalLoop=1;jettySize=auto;html=1;entryX=1;entryY=0.5;entryDx=0;entryDy=0;" edge="1" parent="1" source="7mZpvFm0Rja0avcv9IFA-12" target="7mZpvFm0Rja0avcv9IFA-68">
          <mxGeometry relative="1" as="geometry">
            <Array as="points">
              <mxPoint x="1127" y="530" />
              <mxPoint x="1192" y="530" />
              <mxPoint x="1192" y="820" />
            </Array>
          </mxGeometry>
        </mxCell>
        <mxCell id="7mZpvFm0Rja0avcv9IFA-72" value="Y" style="edgeLabel;html=1;align=center;verticalAlign=middle;resizable=0;points=[];" vertex="1" connectable="0" parent="7mZpvFm0Rja0avcv9IFA-71">
          <mxGeometry x="-0.4998" y="-3" relative="1" as="geometry">
            <mxPoint as="offset" />
          </mxGeometry>
        </mxCell>
        <mxCell id="7mZpvFm0Rja0avcv9IFA-12" value="YUV&lt;br&gt;TO&lt;br&gt;RGB" style="rounded=0;whiteSpace=wrap;html=1;fillColor=#d5e8d4;strokeColor=#82b366;" vertex="1" parent="1">
          <mxGeometry x="1102" y="240" width="50" height="200" as="geometry" />
        </mxCell>
        <mxCell id="7mZpvFm0Rja0avcv9IFA-18" value="TMDS" style="edgeStyle=orthogonalEdgeStyle;rounded=0;orthogonalLoop=1;jettySize=auto;html=1;entryX=0;entryY=0.5;entryDx=0;entryDy=0;" edge="1" parent="1" source="7mZpvFm0Rja0avcv9IFA-14" target="7mZpvFm0Rja0avcv9IFA-17">
          <mxGeometry relative="1" as="geometry" />
        </mxCell>
        <mxCell id="7mZpvFm0Rja0avcv9IFA-14" value="DVI&lt;br&gt;ENCODE" style="rounded=0;whiteSpace=wrap;html=1;fillColor=#fff2cc;strokeColor=#d6b656;" vertex="1" parent="1">
          <mxGeometry x="1202" y="240" width="80" height="200" as="geometry" />
        </mxCell>
        <mxCell id="7mZpvFm0Rja0avcv9IFA-17" value="VIDEO OUT" style="rounded=0;whiteSpace=wrap;html=1;fillColor=#fff2cc;strokeColor=#d6b656;" vertex="1" parent="1">
          <mxGeometry x="1387" y="240" width="80" height="200" as="geometry" />
        </mxCell>
        <mxCell id="7mZpvFm0Rja0avcv9IFA-20" style="edgeStyle=orthogonalEdgeStyle;rounded=0;orthogonalLoop=1;jettySize=auto;html=1;entryX=0.5;entryY=1;entryDx=0;entryDy=0;" edge="1" parent="1" source="7mZpvFm0Rja0avcv9IFA-19" target="7mZpvFm0Rja0avcv9IFA-14">
          <mxGeometry relative="1" as="geometry" />
        </mxCell>
        <mxCell id="7mZpvFm0Rja0avcv9IFA-21" value="HVA" style="edgeLabel;html=1;align=center;verticalAlign=middle;resizable=0;points=[];" vertex="1" connectable="0" parent="7mZpvFm0Rja0avcv9IFA-20">
          <mxGeometry x="-0.5893" relative="1" as="geometry">
            <mxPoint as="offset" />
          </mxGeometry>
        </mxCell>
        <mxCell id="7mZpvFm0Rja0avcv9IFA-90" style="edgeStyle=orthogonalEdgeStyle;rounded=0;orthogonalLoop=1;jettySize=auto;html=1;entryX=1;entryY=0.75;entryDx=0;entryDy=0;" edge="1" parent="1" source="7mZpvFm0Rja0avcv9IFA-19" target="7mZpvFm0Rja0avcv9IFA-86">
          <mxGeometry relative="1" as="geometry" />
        </mxCell>
        <mxCell id="7mZpvFm0Rja0avcv9IFA-91" style="edgeStyle=orthogonalEdgeStyle;rounded=0;orthogonalLoop=1;jettySize=auto;html=1;entryX=1;entryY=0.75;entryDx=0;entryDy=0;" edge="1" parent="1" source="7mZpvFm0Rja0avcv9IFA-19" target="7mZpvFm0Rja0avcv9IFA-88">
          <mxGeometry relative="1" as="geometry" />
        </mxCell>
        <mxCell id="7mZpvFm0Rja0avcv9IFA-19" value="Video Timing&lt;br&gt;Generator" style="whiteSpace=wrap;html=1;aspect=fixed;fillColor=#d5e8d4;strokeColor=#82b366;" vertex="1" parent="1">
          <mxGeometry x="902" y="540" width="130" height="130" as="geometry" />
        </mxCell>
        <mxCell id="7mZpvFm0Rja0avcv9IFA-23" style="edgeStyle=orthogonalEdgeStyle;rounded=0;orthogonalLoop=1;jettySize=auto;html=1;exitX=1;exitY=0.25;exitDx=0;exitDy=0;entryX=0.5;entryY=1;entryDx=0;entryDy=0;" edge="1" parent="1" source="7mZpvFm0Rja0avcv9IFA-22" target="7mZpvFm0Rja0avcv9IFA-5">
          <mxGeometry relative="1" as="geometry">
            <Array as="points">
              <mxPoint x="240" y="225" />
            </Array>
          </mxGeometry>
        </mxCell>
        <mxCell id="7mZpvFm0Rja0avcv9IFA-24" style="edgeStyle=orthogonalEdgeStyle;rounded=0;orthogonalLoop=1;jettySize=auto;html=1;" edge="1" parent="1" target="7mZpvFm0Rja0avcv9IFA-6">
          <mxGeometry relative="1" as="geometry">
            <mxPoint x="243" y="450" as="sourcePoint" />
            <Array as="points">
              <mxPoint x="243" y="445" />
            </Array>
          </mxGeometry>
        </mxCell>
        <mxCell id="7mZpvFm0Rja0avcv9IFA-25" style="edgeStyle=orthogonalEdgeStyle;rounded=0;orthogonalLoop=1;jettySize=auto;html=1;exitX=1;exitY=0.75;exitDx=0;exitDy=0;entryX=0.5;entryY=1;entryDx=0;entryDy=0;dashed=1;" edge="1" parent="1" source="7mZpvFm0Rja0avcv9IFA-22" target="7mZpvFm0Rja0avcv9IFA-8">
          <mxGeometry relative="1" as="geometry">
            <Array as="points">
              <mxPoint x="240" y="520" />
              <mxPoint x="1027" y="520" />
            </Array>
          </mxGeometry>
        </mxCell>
        <mxCell id="7mZpvFm0Rja0avcv9IFA-62" style="edgeStyle=orthogonalEdgeStyle;rounded=0;orthogonalLoop=1;jettySize=auto;html=1;" edge="1" parent="1" source="7mZpvFm0Rja0avcv9IFA-22" target="7mZpvFm0Rja0avcv9IFA-59">
          <mxGeometry relative="1" as="geometry">
            <Array as="points">
              <mxPoint x="435" y="320" />
              <mxPoint x="435" y="360" />
            </Array>
          </mxGeometry>
        </mxCell>
        <mxCell id="7mZpvFm0Rja0avcv9IFA-22" value="Register File" style="rounded=0;whiteSpace=wrap;html=1;fillColor=#e1d5e7;strokeColor=#9673a6;" vertex="1" parent="1">
          <mxGeometry x="120" y="-140" width="120" height="920" as="geometry" />
        </mxCell>
        <mxCell id="7mZpvFm0Rja0avcv9IFA-39" style="edgeStyle=orthogonalEdgeStyle;rounded=0;orthogonalLoop=1;jettySize=auto;html=1;entryX=0;entryY=0.42;entryDx=0;entryDy=0;entryPerimeter=0;" edge="1" parent="1" source="7mZpvFm0Rja0avcv9IFA-26" target="7mZpvFm0Rja0avcv9IFA-27">
          <mxGeometry relative="1" as="geometry" />
        </mxCell>
        <mxCell id="7mZpvFm0Rja0avcv9IFA-43" style="edgeStyle=orthogonalEdgeStyle;rounded=0;orthogonalLoop=1;jettySize=auto;html=1;entryX=1.012;entryY=0.191;entryDx=0;entryDy=0;entryPerimeter=0;endArrow=none;endFill=0;startArrow=classic;startFill=1;" edge="1" parent="1" source="7mZpvFm0Rja0avcv9IFA-26" target="7mZpvFm0Rja0avcv9IFA-22">
          <mxGeometry relative="1" as="geometry" />
        </mxCell>
        <mxCell id="7mZpvFm0Rja0avcv9IFA-26" value="OSC1" style="rounded=0;whiteSpace=wrap;html=1;" vertex="1" parent="1">
          <mxGeometry x="290" y="20" width="120" height="30" as="geometry" />
        </mxCell>
        <mxCell id="7mZpvFm0Rja0avcv9IFA-57" style="edgeStyle=orthogonalEdgeStyle;rounded=0;orthogonalLoop=1;jettySize=auto;html=1;exitX=1;exitY=0.75;exitDx=0;exitDy=0;" edge="1" parent="1" source="7mZpvFm0Rja0avcv9IFA-27" target="7mZpvFm0Rja0avcv9IFA-56">
          <mxGeometry relative="1" as="geometry">
            <Array as="points">
              <mxPoint x="690" y="180" />
            </Array>
          </mxGeometry>
        </mxCell>
        <mxCell id="7mZpvFm0Rja0avcv9IFA-64" style="edgeStyle=orthogonalEdgeStyle;rounded=0;orthogonalLoop=1;jettySize=auto;html=1;entryX=0.631;entryY=-0.077;entryDx=0;entryDy=0;entryPerimeter=0;" edge="1" parent="1" source="7mZpvFm0Rja0avcv9IFA-27" target="7mZpvFm0Rja0avcv9IFA-63">
          <mxGeometry relative="1" as="geometry">
            <Array as="points">
              <mxPoint x="796" y="140" />
            </Array>
          </mxGeometry>
        </mxCell>
        <mxCell id="7mZpvFm0Rja0avcv9IFA-65" value="spread" style="edgeLabel;html=1;align=center;verticalAlign=middle;resizable=0;points=[];" vertex="1" connectable="0" parent="7mZpvFm0Rja0avcv9IFA-64">
          <mxGeometry x="-0.6588" y="-2" relative="1" as="geometry">
            <mxPoint as="offset" />
          </mxGeometry>
        </mxCell>
        <mxCell id="7mZpvFm0Rja0avcv9IFA-27" value="Analoge Matrix" style="rounded=0;whiteSpace=wrap;html=1;fillColor=#e1d5e7;strokeColor=#9673a6;" vertex="1" parent="1">
          <mxGeometry x="460" y="-150" width="120" height="440" as="geometry" />
        </mxCell>
        <mxCell id="7mZpvFm0Rja0avcv9IFA-38" style="edgeStyle=orthogonalEdgeStyle;rounded=0;orthogonalLoop=1;jettySize=auto;html=1;entryX=-0.003;entryY=0.512;entryDx=0;entryDy=0;entryPerimeter=0;" edge="1" parent="1" source="7mZpvFm0Rja0avcv9IFA-29" target="7mZpvFm0Rja0avcv9IFA-27">
          <mxGeometry relative="1" as="geometry" />
        </mxCell>
        <mxCell id="7mZpvFm0Rja0avcv9IFA-41" style="edgeStyle=orthogonalEdgeStyle;rounded=0;orthogonalLoop=1;jettySize=auto;html=1;entryX=1.014;entryY=0.233;entryDx=0;entryDy=0;entryPerimeter=0;endArrow=none;endFill=0;startArrow=classic;startFill=1;" edge="1" parent="1" source="7mZpvFm0Rja0avcv9IFA-29" target="7mZpvFm0Rja0avcv9IFA-22">
          <mxGeometry relative="1" as="geometry" />
        </mxCell>
        <mxCell id="7mZpvFm0Rja0avcv9IFA-29" value="OSC1" style="rounded=0;whiteSpace=wrap;html=1;" vertex="1" parent="1">
          <mxGeometry x="290" y="60" width="120" height="30" as="geometry" />
        </mxCell>
        <mxCell id="7mZpvFm0Rja0avcv9IFA-37" style="edgeStyle=orthogonalEdgeStyle;rounded=0;orthogonalLoop=1;jettySize=auto;html=1;entryX=0.014;entryY=0.603;entryDx=0;entryDy=0;entryPerimeter=0;" edge="1" parent="1" source="7mZpvFm0Rja0avcv9IFA-30" target="7mZpvFm0Rja0avcv9IFA-27">
          <mxGeometry relative="1" as="geometry" />
        </mxCell>
        <mxCell id="7mZpvFm0Rja0avcv9IFA-40" style="edgeStyle=orthogonalEdgeStyle;rounded=0;orthogonalLoop=1;jettySize=auto;html=1;entryX=1.005;entryY=0.277;entryDx=0;entryDy=0;entryPerimeter=0;endArrow=none;endFill=0;startArrow=classic;startFill=1;" edge="1" parent="1" source="7mZpvFm0Rja0avcv9IFA-30" target="7mZpvFm0Rja0avcv9IFA-22">
          <mxGeometry relative="1" as="geometry" />
        </mxCell>
        <mxCell id="7mZpvFm0Rja0avcv9IFA-30" value="RANDOM" style="rounded=0;whiteSpace=wrap;html=1;fillColor=#d5e8d4;strokeColor=#82b366;" vertex="1" parent="1">
          <mxGeometry x="290" y="100" width="120" height="30" as="geometry" />
        </mxCell>
        <mxCell id="7mZpvFm0Rja0avcv9IFA-35" style="edgeStyle=orthogonalEdgeStyle;rounded=0;orthogonalLoop=1;jettySize=auto;html=1;entryX=0.25;entryY=0;entryDx=0;entryDy=0;" edge="1" parent="1" source="7mZpvFm0Rja0avcv9IFA-32" target="7mZpvFm0Rja0avcv9IFA-27">
          <mxGeometry relative="1" as="geometry" />
        </mxCell>
        <mxCell id="7mZpvFm0Rja0avcv9IFA-36" value="A/T/B" style="edgeLabel;html=1;align=center;verticalAlign=middle;resizable=0;points=[];" vertex="1" connectable="0" parent="7mZpvFm0Rja0avcv9IFA-35">
          <mxGeometry x="-0.4857" y="-1" relative="1" as="geometry">
            <mxPoint as="offset" />
          </mxGeometry>
        </mxCell>
        <mxCell id="7mZpvFm0Rja0avcv9IFA-45" style="edgeStyle=orthogonalEdgeStyle;rounded=0;orthogonalLoop=1;jettySize=auto;html=1;entryX=1;entryY=0.152;entryDx=0;entryDy=0;entryPerimeter=0;endArrow=none;endFill=0;startArrow=classic;startFill=1;" edge="1" parent="1" source="7mZpvFm0Rja0avcv9IFA-32" target="7mZpvFm0Rja0avcv9IFA-22">
          <mxGeometry relative="1" as="geometry">
            <Array as="points">
              <mxPoint x="350" />
            </Array>
          </mxGeometry>
        </mxCell>
        <mxCell id="7mZpvFm0Rja0avcv9IFA-32" value="AUDIO IN" style="rounded=0;whiteSpace=wrap;html=1;" vertex="1" parent="1">
          <mxGeometry x="290" y="-190" width="120" height="30" as="geometry" />
        </mxCell>
        <mxCell id="7mZpvFm0Rja0avcv9IFA-34" style="edgeStyle=orthogonalEdgeStyle;rounded=0;orthogonalLoop=1;jettySize=auto;html=1;entryX=0.5;entryY=0;entryDx=0;entryDy=0;" edge="1" parent="1" source="7mZpvFm0Rja0avcv9IFA-33" target="7mZpvFm0Rja0avcv9IFA-27">
          <mxGeometry relative="1" as="geometry" />
        </mxCell>
        <mxCell id="7mZpvFm0Rja0avcv9IFA-52" style="edgeStyle=orthogonalEdgeStyle;rounded=0;orthogonalLoop=1;jettySize=auto;html=1;entryX=1.007;entryY=0.116;entryDx=0;entryDy=0;entryPerimeter=0;startArrow=classic;startFill=1;endArrow=none;endFill=0;" edge="1" parent="1" source="7mZpvFm0Rja0avcv9IFA-33" target="7mZpvFm0Rja0avcv9IFA-22">
          <mxGeometry relative="1" as="geometry" />
        </mxCell>
        <mxCell id="7mZpvFm0Rja0avcv9IFA-33" value="EXTERNAL IN" style="rounded=0;whiteSpace=wrap;html=1;" vertex="1" parent="1">
          <mxGeometry x="290" y="-240" width="120" height="30" as="geometry" />
        </mxCell>
        <mxCell id="7mZpvFm0Rja0avcv9IFA-50" style="edgeStyle=orthogonalEdgeStyle;rounded=0;orthogonalLoop=1;jettySize=auto;html=1;entryX=0;entryY=0.5;entryDx=0;entryDy=0;" edge="1" parent="1" source="7mZpvFm0Rja0avcv9IFA-49" target="7mZpvFm0Rja0avcv9IFA-32">
          <mxGeometry relative="1" as="geometry" />
        </mxCell>
        <mxCell id="7mZpvFm0Rja0avcv9IFA-49" value="I2S IN" style="rounded=0;whiteSpace=wrap;html=1;" vertex="1" parent="1">
          <mxGeometry x="120" y="-190" width="120" height="30" as="geometry" />
        </mxCell>
        <mxCell id="7mZpvFm0Rja0avcv9IFA-53" value="Digital Matrix" style="rounded=0;whiteSpace=wrap;html=1;fillColor=#d5e8d4;strokeColor=#82b366;" vertex="1" parent="1">
          <mxGeometry x="460" y="510" width="130" height="340" as="geometry" />
        </mxCell>
        <mxCell id="7mZpvFm0Rja0avcv9IFA-55" style="edgeStyle=orthogonalEdgeStyle;rounded=0;orthogonalLoop=1;jettySize=auto;html=1;entryX=0.5;entryY=1;entryDx=0;entryDy=0;startArrow=classic;startFill=1;" edge="1" parent="1" source="7mZpvFm0Rja0avcv9IFA-54" target="7mZpvFm0Rja0avcv9IFA-22">
          <mxGeometry relative="1" as="geometry" />
        </mxCell>
        <mxCell id="7mZpvFm0Rja0avcv9IFA-54" value="Spy Ram&lt;br&gt;(for matrix values)" style="rounded=0;whiteSpace=wrap;html=1;" vertex="1" parent="1">
          <mxGeometry x="120" y="810" width="120" height="120" as="geometry" />
        </mxCell>
        <mxCell id="7mZpvFm0Rja0avcv9IFA-60" style="edgeStyle=orthogonalEdgeStyle;rounded=0;orthogonalLoop=1;jettySize=auto;html=1;entryX=0.5;entryY=0;entryDx=0;entryDy=0;" edge="1" parent="1" source="7mZpvFm0Rja0avcv9IFA-56" target="7mZpvFm0Rja0avcv9IFA-59">
          <mxGeometry relative="1" as="geometry" />
        </mxCell>
        <mxCell id="7mZpvFm0Rja0avcv9IFA-56" value="Shape Gen 1/2" style="rounded=0;whiteSpace=wrap;html=1;fillColor=#e1d5e7;strokeColor=#9673a6;" vertex="1" parent="1">
          <mxGeometry x="630" y="250" width="120" height="60" as="geometry" />
        </mxCell>
        <mxCell id="7mZpvFm0Rja0avcv9IFA-61" style="edgeStyle=orthogonalEdgeStyle;rounded=0;orthogonalLoop=1;jettySize=auto;html=1;entryX=1.008;entryY=0.444;entryDx=0;entryDy=0;entryPerimeter=0;" edge="1" parent="1" source="7mZpvFm0Rja0avcv9IFA-59" target="7mZpvFm0Rja0avcv9IFA-53">
          <mxGeometry relative="1" as="geometry">
            <Array as="points">
              <mxPoint x="690" y="661" />
            </Array>
          </mxGeometry>
        </mxCell>
        <mxCell id="7mZpvFm0Rja0avcv9IFA-59" value="Mux" style="rounded=0;whiteSpace=wrap;html=1;" vertex="1" parent="1">
          <mxGeometry x="630" y="350" width="120" height="40" as="geometry" />
        </mxCell>
        <mxCell id="7mZpvFm0Rja0avcv9IFA-67" style="edgeStyle=orthogonalEdgeStyle;rounded=0;orthogonalLoop=1;jettySize=auto;html=1;entryX=1;entryY=0.647;entryDx=0;entryDy=0;entryPerimeter=0;" edge="1" parent="1" source="7mZpvFm0Rja0avcv9IFA-63" target="7mZpvFm0Rja0avcv9IFA-53">
          <mxGeometry relative="1" as="geometry" />
        </mxCell>
        <mxCell id="7mZpvFm0Rja0avcv9IFA-63" value="Video In Comp" style="rounded=0;whiteSpace=wrap;html=1;strokeColor=#82b366;fillColor=#d5e8d4;" vertex="1" parent="1">
          <mxGeometry x="720" y="790" width="120" height="60" as="geometry" />
        </mxCell>
        <mxCell id="7mZpvFm0Rja0avcv9IFA-69" style="edgeStyle=orthogonalEdgeStyle;rounded=0;orthogonalLoop=1;jettySize=auto;html=1;entryX=1;entryY=0.5;entryDx=0;entryDy=0;" edge="1" parent="1" source="7mZpvFm0Rja0avcv9IFA-68" target="7mZpvFm0Rja0avcv9IFA-63">
          <mxGeometry relative="1" as="geometry" />
        </mxCell>
        <mxCell id="7mZpvFm0Rja0avcv9IFA-75" style="edgeStyle=orthogonalEdgeStyle;rounded=0;orthogonalLoop=1;jettySize=auto;html=1;entryX=0.997;entryY=0.927;entryDx=0;entryDy=0;entryPerimeter=0;startArrow=classic;startFill=1;endArrow=none;endFill=0;" edge="1" parent="1" source="7mZpvFm0Rja0avcv9IFA-68" target="7mZpvFm0Rja0avcv9IFA-22">
          <mxGeometry relative="1" as="geometry">
            <Array as="points">
              <mxPoint x="1112" y="940" />
              <mxPoint x="280" y="940" />
              <mxPoint x="280" y="713" />
            </Array>
          </mxGeometry>
        </mxCell>
        <mxCell id="7mZpvFm0Rja0avcv9IFA-68" value="Mux" style="rounded=0;whiteSpace=wrap;html=1;" vertex="1" parent="1">
          <mxGeometry x="1052" y="790" width="120" height="60" as="geometry" />
        </mxCell>
        <mxCell id="7mZpvFm0Rja0avcv9IFA-74" style="edgeStyle=orthogonalEdgeStyle;rounded=0;orthogonalLoop=1;jettySize=auto;html=1;entryX=0.75;entryY=1;entryDx=0;entryDy=0;" edge="1" parent="1" source="7mZpvFm0Rja0avcv9IFA-73" target="7mZpvFm0Rja0avcv9IFA-68">
          <mxGeometry relative="1" as="geometry" />
        </mxCell>
        <mxCell id="7mZpvFm0Rja0avcv9IFA-73" value="Camera" style="rounded=0;whiteSpace=wrap;html=1;" vertex="1" parent="1">
          <mxGeometry x="1290" y="880" width="120" height="60" as="geometry" />
        </mxCell>
        <mxCell id="7mZpvFm0Rja0avcv9IFA-81" style="edgeStyle=orthogonalEdgeStyle;rounded=0;orthogonalLoop=1;jettySize=auto;html=1;entryX=0;entryY=0.162;entryDx=0;entryDy=0;entryPerimeter=0;" edge="1" parent="1" source="7mZpvFm0Rja0avcv9IFA-76" target="7mZpvFm0Rja0avcv9IFA-53">
          <mxGeometry relative="1" as="geometry" />
        </mxCell>
        <mxCell id="7mZpvFm0Rja0avcv9IFA-76" value="INV" style="rounded=0;whiteSpace=wrap;html=1;fillColor=#d5e8d4;strokeColor=#82b366;" vertex="1" parent="1">
          <mxGeometry x="290" y="550" width="120" height="30" as="geometry" />
        </mxCell>
        <mxCell id="7mZpvFm0Rja0avcv9IFA-82" style="edgeStyle=orthogonalEdgeStyle;rounded=0;orthogonalLoop=1;jettySize=auto;html=1;entryX=-0.015;entryY=0.278;entryDx=0;entryDy=0;entryPerimeter=0;" edge="1" parent="1" source="7mZpvFm0Rja0avcv9IFA-77" target="7mZpvFm0Rja0avcv9IFA-53">
          <mxGeometry relative="1" as="geometry" />
        </mxCell>
        <mxCell id="7mZpvFm0Rja0avcv9IFA-77" value="OVERLAY" style="rounded=0;whiteSpace=wrap;html=1;fillColor=#d5e8d4;strokeColor=#82b366;" vertex="1" parent="1">
          <mxGeometry x="290" y="590" width="120" height="30" as="geometry" />
        </mxCell>
        <mxCell id="7mZpvFm0Rja0avcv9IFA-83" style="edgeStyle=orthogonalEdgeStyle;rounded=0;orthogonalLoop=1;jettySize=auto;html=1;entryX=-0.032;entryY=0.391;entryDx=0;entryDy=0;entryPerimeter=0;" edge="1" parent="1" source="7mZpvFm0Rja0avcv9IFA-78" target="7mZpvFm0Rja0avcv9IFA-53">
          <mxGeometry relative="1" as="geometry" />
        </mxCell>
        <mxCell id="7mZpvFm0Rja0avcv9IFA-78" value="DELAY" style="rounded=0;whiteSpace=wrap;html=1;fillColor=#d5e8d4;strokeColor=#82b366;" vertex="1" parent="1">
          <mxGeometry x="290" y="630" width="120" height="30" as="geometry" />
        </mxCell>
        <mxCell id="7mZpvFm0Rja0avcv9IFA-84" style="edgeStyle=orthogonalEdgeStyle;rounded=0;orthogonalLoop=1;jettySize=auto;html=1;entryX=0;entryY=0.525;entryDx=0;entryDy=0;entryPerimeter=0;" edge="1" parent="1" source="7mZpvFm0Rja0avcv9IFA-79" target="7mZpvFm0Rja0avcv9IFA-53">
          <mxGeometry relative="1" as="geometry" />
        </mxCell>
        <mxCell id="7mZpvFm0Rja0avcv9IFA-79" value="FLIP FLOPS" style="rounded=0;whiteSpace=wrap;html=1;fillColor=#d5e8d4;strokeColor=#82b366;" vertex="1" parent="1">
          <mxGeometry x="290" y="670" width="120" height="30" as="geometry" />
        </mxCell>
        <mxCell id="7mZpvFm0Rja0avcv9IFA-85" style="edgeStyle=orthogonalEdgeStyle;rounded=0;orthogonalLoop=1;jettySize=auto;html=1;entryX=0;entryY=0.632;entryDx=0;entryDy=0;entryPerimeter=0;" edge="1" parent="1" source="7mZpvFm0Rja0avcv9IFA-80" target="7mZpvFm0Rja0avcv9IFA-53">
          <mxGeometry relative="1" as="geometry" />
        </mxCell>
        <mxCell id="7mZpvFm0Rja0avcv9IFA-80" value="EDGE" style="rounded=0;whiteSpace=wrap;html=1;fillColor=#d5e8d4;strokeColor=#82b366;" vertex="1" parent="1">
          <mxGeometry x="290" y="710" width="120" height="30" as="geometry" />
        </mxCell>
        <mxCell id="7mZpvFm0Rja0avcv9IFA-87" style="edgeStyle=orthogonalEdgeStyle;rounded=0;orthogonalLoop=1;jettySize=auto;html=1;entryX=1;entryY=0.5;entryDx=0;entryDy=0;" edge="1" parent="1" source="7mZpvFm0Rja0avcv9IFA-86" target="7mZpvFm0Rja0avcv9IFA-53">
          <mxGeometry relative="1" as="geometry" />
        </mxCell>
        <mxCell id="7mZpvFm0Rja0avcv9IFA-86" value="X/Y Counters" style="rounded=0;whiteSpace=wrap;html=1;fillColor=#d5e8d4;strokeColor=#82b366;" vertex="1" parent="1">
          <mxGeometry x="810" y="680" width="120" height="30" as="geometry" />
        </mxCell>
        <mxCell id="7mZpvFm0Rja0avcv9IFA-89" style="edgeStyle=orthogonalEdgeStyle;rounded=0;orthogonalLoop=1;jettySize=auto;html=1;entryX=1.024;entryY=0.578;entryDx=0;entryDy=0;entryPerimeter=0;" edge="1" parent="1" source="7mZpvFm0Rja0avcv9IFA-88" target="7mZpvFm0Rja0avcv9IFA-53">
          <mxGeometry relative="1" as="geometry" />
        </mxCell>
        <mxCell id="7mZpvFm0Rja0avcv9IFA-88" value="Slow Counters" style="rounded=0;whiteSpace=wrap;html=1;fillColor=#d5e8d4;strokeColor=#82b366;" vertex="1" parent="1">
          <mxGeometry x="810" y="720" width="120" height="30" as="geometry" />
        </mxCell>
        <mxCell id="7mZpvFm0Rja0avcv9IFA-92" value="DONE" style="whiteSpace=wrap;html=1;aspect=fixed;fillColor=#d5e8d4;strokeColor=#82b366;" vertex="1" parent="1">
          <mxGeometry x="1010" y="-220" width="60" height="60" as="geometry" />
        </mxCell>
        <mxCell id="7mZpvFm0Rja0avcv9IFA-93" value="Temp" style="whiteSpace=wrap;html=1;aspect=fixed;fillColor=#fff2cc;strokeColor=#d6b656;" vertex="1" parent="1">
          <mxGeometry x="1010" y="-150" width="60" height="60" as="geometry" />
        </mxCell>
        <mxCell id="7mZpvFm0Rja0avcv9IFA-94" value="WIP" style="whiteSpace=wrap;html=1;aspect=fixed;fillColor=#e1d5e7;strokeColor=#9673a6;" vertex="1" parent="1">
          <mxGeometry x="1010" y="-80" width="60" height="60" as="geometry" />
        </mxCell>
      </root>
    </mxGraphModel>
  </diagram>
</mxfile>
